<svg width="58" height="64" viewBox="0 0 58 64" fill="none" xmlns="http://www.w3.org/2000/svg">
<g filter="url(#filter0_d_74_1017)">
<path d="M0 10C0 5.28595 0 2.92893 1.46447 1.46447C2.92893 0 5.28595 0 10 0H29C37.381 0 41.5715 0 44.9223 1.23617C50.4116 3.26125 54.7387 7.58844 56.7638 13.0777C58 16.4285 58 20.619 58 29V29C58 37.381 58 41.5715 56.7638 44.9223C54.7387 50.4116 50.4116 54.7387 44.9223 56.7638C41.5715 58 37.381 58 29 58H10C5.28595 58 2.92893 58 1.46447 56.5355C0 55.0711 0 52.714 0 48V10Z" fill="#A6CD25"/>
</g>
<ellipse cx="46.0225" cy="10.5" rx="7.60186" ry="2.95423" transform="rotate(31.6062 46.0225 10.5)" fill="white"/>
<ellipse cx="6.59436" cy="51.5551" rx="4.07411" ry="2.17568" transform="rotate(22.2251 6.59436 51.5551)" fill="white" fill-opacity="0.91"/>
<defs>
<filter id="filter0_d_74_1017" x="0" y="0" width="58" height="63.5172" filterUnits="userSpaceOnUse" color-interpolation-filters="sRGB">
<feFlood flood-opacity="0" result="BackgroundImageFix"/>
<feColorMatrix in="SourceAlpha" type="matrix" values="0 0 0 0 0 0 0 0 0 0 0 0 0 0 0 0 0 0 127 0" result="hardAlpha"/>
<feOffset dy="5.51724"/>
<feComposite in2="hardAlpha" operator="out"/>
<feColorMatrix type="matrix" values="0 0 0 0 0.546416 0 0 0 0 0.676822 0 0 0 0 0.115072 0 0 0 1 0"/>
<feBlend mode="normal" in2="BackgroundImageFix" result="effect1_dropShadow_74_1017"/>
<feBlend mode="normal" in="SourceGraphic" in2="effect1_dropShadow_74_1017" result="shape"/>
</filter>
</defs>
</svg>
